<svg width="100" height="100" viewBox="0 0 100 100" fill="none" xmlns="http://www.w3.org/2000/svg">
<path d="M36.8125 37.8906C39.7969 42.6562 44.9062 45.0469 50 45.0469V45.3125H45.8594C45.6719 45.3125 45.5 45.3125 45.3125 45.2969C38.9531 45.1719 32.7969 42.6562 28.4219 38.0312C25.6563 35.0938 23.4375 31.2812 23.4375 26.5625C23.4375 14.0625 29.6875 4.6875 29.6875 4.6875L38.25 12.2969C36.4844 16.2188 34.375 22.4219 34.375 29.6875C34.375 32.8125 35.3437 35.5469 36.8125 37.8906Z" fill="#FF4440"/>
<path d="M71.625 38.125C67.2344 42.7344 61.0625 45.2031 54.6875 45.2969C54.5469 45.3125 54.4062 45.3125 54.2656 45.3125H50V45.0469C55.0938 45.0469 60.2031 42.6562 63.1875 37.8906C64.6562 35.5469 65.625 32.8125 65.625 29.6875C65.625 22.375 63.4844 16.1406 61.7188 12.2188L70.3125 4.6875C70.3125 4.6875 76.5625 14.125 76.5625 26.7031C76.5625 31.4219 74.3594 35.2188 71.625 38.125Z" fill="#FF4440"/>
<path d="M65.625 29.6875C65.625 32.8125 64.6562 35.5469 63.1875 37.8906C60.2031 42.6562 55.0938 45.0469 50 45.0469C44.9062 45.0469 39.7969 42.6562 36.8125 37.8906C35.3437 35.5469 34.375 32.8125 34.375 29.6875C34.375 22.4219 36.4844 16.2188 38.25 12.2969C39.5312 9.45312 40.625 7.8125 40.625 7.8125L50 15.625L59.375 7.8125C59.375 7.8125 60.4531 9.4375 61.7188 12.2188C63.4844 16.1406 65.625 22.375 65.625 29.6875Z" fill="#FFAAAA"/>
<path d="M54.6875 45.3125V87.5V96.875H45.3125V71.875V45.3125V45.2969C45.5 45.3125 45.6719 45.3125 45.8594 45.3125H50H54.2656C54.4062 45.3125 54.5469 45.3125 54.6875 45.2969V45.3125Z" fill="#B27946"/>
<path d="M45.3125 71.875H29.6875C24.5 71.875 19.8125 69.7813 16.4219 66.3906C13.0313 63 10.9375 58.3125 10.9375 53.125H26.5625C31.75 53.125 36.4375 55.2187 39.8281 58.6094C43.2188 62 45.3125 66.6875 45.3125 71.875Z" fill="#B4DD7F"/>
<path d="M73.4375 68.75H89.0625C89.0625 73.9375 86.9688 78.625 83.5781 82.0156C80.1875 85.4063 75.5 87.5 70.3125 87.5H54.6875C54.6875 82.3125 56.7812 77.625 60.1719 74.2344C63.5625 70.8437 68.25 68.75 73.4375 68.75Z" fill="#B4DD7F"/>
<path d="M59.2094 35.4062C60.3719 33.5437 60.9375 31.6734 60.9375 29.6875C60.9375 25.6016 60.1781 21.4094 58.6797 17.2266L55.7375 18.2813C57.1141 22.125 57.8125 25.9625 57.8125 29.6875C57.8125 31.0703 57.4031 32.4 56.5594 33.75C55.1906 35.9375 52.7391 37.2437 50 37.2437V40.3687C53.8234 40.3687 57.2656 38.5141 59.2094 35.4062Z" fill="black"/>
<path d="M1.5625 95.3125H4.6875V98.4375H1.5625V95.3125Z" fill="black"/>
<path d="M95.3125 95.3125H98.4375V98.4375H95.3125V95.3125Z" fill="black"/>
<path d="M56.25 89.0625H70.3125C81.5125 89.0625 90.625 79.95 90.625 68.75V67.1875H73.4375C66.1969 67.1875 59.8469 71.0062 56.25 76.7234V46.7781C62.6328 46.3094 68.5656 43.6188 72.7531 39.1937C76.3172 35.425 78.125 31.2234 78.125 26.7016C78.125 13.8 71.8812 4.225 71.6141 3.82344L70.6266 2.33281L62.2359 9.68438C61.3922 8.04063 60.7563 7.06562 60.675 6.94375L59.7109 5.5L50 13.5906L40.2891 5.5L39.325 6.94688C39.2437 7.07031 38.5922 8.06406 37.7313 9.74844L29.3828 2.32812L28.3859 3.82188C28.1219 4.22031 21.875 13.7375 21.875 26.5625C21.875 31.0734 23.6953 35.2922 27.2844 39.1031C31.4766 43.5516 37.3891 46.2703 43.75 46.7703V61.0984C40.1531 55.3812 33.8031 51.5625 26.5625 51.5625H9.375V53.125C9.375 64.325 18.4875 73.4375 29.6875 73.4375H43.75V95.3125H7.8125V98.4375H92.1875V95.3125H56.25V89.0625ZM73.4375 70.3125H87.4297C86.6375 79.0609 79.2641 85.9375 70.3125 85.9375H56.3203C57.1125 77.1891 64.4859 70.3125 73.4375 70.3125ZM29.6875 70.3125C20.7359 70.3125 13.3625 63.4359 12.5703 54.6875H26.5625C35.5141 54.6875 42.8875 61.5641 43.6797 70.3125H29.6875ZM69.9172 7.11094C71.5922 10.2094 75 17.6281 75 26.7016C75 30.3969 73.4797 33.8766 70.4828 37.0438C67.9062 39.7672 64.5563 41.7375 60.8391 42.8141C62.2578 41.6672 63.5125 40.3094 64.5078 38.7188C66.2859 35.875 67.1875 32.8359 67.1875 29.6875C67.1875 22.7063 65.3375 16.7219 63.6078 12.6391L69.9172 7.11094ZM41.0406 10.1922L50 17.6594L58.9609 10.1922C60.6281 13.2469 64.0625 20.6375 64.0625 29.6875C64.0625 32.2406 63.3203 34.7234 61.8578 37.0625C59.3422 41.0891 54.9078 43.4922 50 43.4922C45.0922 43.4922 40.6578 41.0875 38.1422 37.0625C36.6797 34.7234 35.9375 32.2406 35.9375 29.6875C35.9375 20.6688 39.3734 13.2563 41.0406 10.1922ZM25 26.5625C25 17.5953 28.3969 10.2188 30.075 7.12188L36.3625 12.7109C34.6406 16.7938 32.8125 22.7469 32.8125 29.6875C32.8125 32.8359 33.7141 35.875 35.4906 38.7188C36.4703 40.2844 37.7031 41.625 39.0938 42.7609C35.425 41.6625 32.1187 39.6781 29.5594 36.9625C26.5344 33.75 25 30.25 25 26.5625ZM46.875 73.4375V71.875V46.875H53.125V87.5V89.0625V95.3125H46.875V73.4375Z" fill="black"/>
</svg>
