<svg width="100" height="100" viewBox="0 0 100 100" fill="none" xmlns="http://www.w3.org/2000/svg">
<g clip-path="url(#clip0)">
<path d="M49.9992 25C49.9992 13.4123 33.5132 13.5335 29.9992 23.3333C27.1973 31.1458 32.8686 37.9061 37.3315 43.3333L49.9992 56.6667L61.6659 43.3333C66.1279 37.9061 72.8011 31.1458 69.9992 23.3333C66.4852 13.5335 49.9992 13.4123 49.9992 25Z" fill="#FF4440"/>
<path d="M36.6658 100V71.6667C36.2264 69.9634 35.6698 68.2926 34.9992 66.6667C29.1626 58.2821 28.2707 50.5916 24.9992 51.6667C22.6872 52.4268 23.3325 56.6667 23.3325 56.6667L23.9648 63.2397L21.6658 55L14.9992 43.3333C13.6971 41.6162 11.6658 40 9.99918 41.6667C8.59862 43.0672 9.99918 46.6667 9.99918 46.6667C9.99918 46.6667 14.9642 62.5057 18.3325 66.6667C20.3865 69.5752 22.6131 72.3576 24.9992 75V100H36.6658Z" fill="#FFD7A8"/>
<path d="M74.9992 100V75C77.3853 72.3576 79.6118 69.5752 81.6659 66.6667C85.0342 62.5057 89.9992 46.6667 89.9992 46.6667C89.9992 46.6667 91.3997 43.0672 89.9992 41.6667C88.3325 40 86.3013 41.6162 84.9992 43.3333L78.3325 55L76.0335 63.2397L76.6659 56.6667C76.6659 56.6667 77.3112 52.4268 74.9992 51.6667C71.7277 50.5916 70.8358 58.2821 64.9992 66.6667C64.3286 68.2926 63.772 69.9634 63.3325 71.6667V100H74.9992Z" fill="#FFD7A8"/>
<path d="M64.2619 42.8247C68.7915 37.4422 74.4263 30.743 71.5682 22.771C69.2578 16.923 63.134 13.5245 56.9491 14.659C54.1219 15.061 51.5967 16.6414 49.9992 19.0088C48.4017 16.6414 45.8765 15.061 43.0493 14.659C36.8644 13.527 30.7422 16.9238 28.4302 22.771C25.3426 31.3802 31.4364 38.789 35.8846 44.1984L50.0496 59.1398L62.9533 44.3921C63.3732 43.881 63.8127 43.3585 64.2619 42.8247ZM60.411 42.2355L49.9487 54.1935L38.619 42.2745L38.4595 42.0809C34.0812 36.7578 29.1203 30.7243 31.5682 23.8956C33.0965 20.1318 36.7953 17.7067 40.8569 17.806C41.4006 17.8051 41.9426 17.8507 42.478 17.9427C45.9937 18.3683 48.5636 21.4664 48.3325 25H51.6659C51.4347 21.4664 54.0047 18.3683 57.5203 17.9427C62.1021 17.1264 66.6374 19.6004 68.4302 23.8956C70.6421 30.0634 65.8976 35.7031 61.7114 40.6787C61.2541 41.2223 60.8065 41.7545 60.411 42.2355Z" fill="black"/>
<path d="M36.3664 65.7144C34.3913 62.7758 32.6823 59.6671 31.259 56.4257C29.4003 52.4373 27.7889 48.9949 24.4784 50.0838C23.3749 50.4508 22.4976 51.2996 22.0939 52.3901L16.4462 42.5064L16.3273 42.3266C15.3028 40.7381 13.6662 39.6451 11.8059 39.309C10.6844 39.2358 9.58987 39.6687 8.82083 40.4882C6.75703 42.5536 8.147 46.5006 8.40904 47.1646C8.61575 47.8238 13.5083 63.3577 17.037 67.7148C17.7092 68.5457 18.3911 69.4758 19.0959 70.4337C20.3882 72.2794 21.8034 74.0356 23.3325 75.6908V99.9999H26.6659V74.2919L26.1564 73.8004C24.5549 72.1427 23.0925 70.3564 21.7814 68.4602C21.0458 67.4592 20.3312 66.4867 19.6281 65.6176C17.0288 62.4088 12.9435 50.4898 11.5519 46.0628C11.0775 45.0602 10.9457 43.9298 11.1776 42.845C11.4038 42.6188 11.5161 42.6269 11.578 42.635C12.4227 42.9239 13.1405 43.4977 13.6076 44.2577L20.1164 55.6469L22.3592 63.6873L25.6226 63.0802L24.9797 56.4159C24.8104 55.2962 24.965 53.4326 25.5721 53.2291C26.1857 53.435 27.3723 55.9781 28.2381 57.8352C29.7152 61.1897 31.482 64.4083 33.5181 67.456C34.1952 69.191 34.9374 71.2833 34.9992 71.6666V99.9999H38.3325V71.6666C38.3325 71.3997 38.3325 70.5867 36.5503 66.0562L36.3664 65.7144Z" fill="black"/>
<path d="M91.1776 40.4883C90.4101 39.6672 89.3139 39.2342 88.1925 39.3091C86.3322 39.6452 84.6956 40.7381 83.671 42.3267L77.9028 52.3926C77.5008 51.3005 76.6243 50.4501 75.52 50.083C72.2127 49.0015 70.5998 52.4374 68.7394 56.4258C67.3161 59.6672 65.6071 62.7759 63.632 65.7145L63.4481 66.0563C61.6658 70.5868 61.6658 71.3998 61.6658 71.6667V100H64.9992L64.9943 71.766C65.4061 70.3019 65.9017 68.8631 66.4803 67.4561C68.5164 64.4084 70.2832 61.1898 71.7602 57.8353C72.6261 55.9782 73.8126 53.4351 74.4783 53.2495C74.9943 53.4196 75.2059 55.1351 75.0073 56.5072L74.3758 63.0803L77.6391 63.6874L79.882 55.647L86.3908 44.2578C86.8579 43.4977 87.5757 42.924 88.4204 42.6351C88.4806 42.6302 88.5962 42.6197 88.8208 42.8451C89.047 43.9681 88.903 45.1343 88.409 46.1686C87.0548 50.4891 82.9695 62.4073 80.3703 65.6185C79.6671 66.4868 78.9526 67.4593 78.2169 68.4603C76.9067 70.3565 75.4435 72.1428 73.8419 73.8005L73.3325 74.292V100H76.6658V75.6909C78.195 74.0357 79.6102 72.2795 80.9025 70.4338C81.6072 69.4759 82.2892 68.5458 82.9614 67.7157C86.4901 63.3578 91.3826 47.8239 91.5519 47.2705C91.8514 46.5007 93.2414 42.5537 91.1776 40.4883Z" fill="black"/>
<path d="M48.3325 0H51.6659V5H48.3325V0Z" fill="black"/>
<path d="M22.8931 11.9182L25.2498 9.5614L28.7866 13.0966L26.4299 15.4533L22.8931 11.9182Z" fill="black"/>
<path d="M71.2126 13.0965L74.7486 9.56055L77.1053 11.9181L73.5694 15.4541L71.2126 13.0965Z" fill="black"/>
<path d="M34.4279 3.42936L37.5073 2.15332L39.4214 6.77246L36.342 8.0485L34.4279 3.42936Z" fill="black"/>
<path d="M15.4858 24.1748L16.7619 21.0953L21.381 23.0086L20.105 26.088L15.4858 24.1748Z" fill="black"/>
<path d="M78.6174 23.0086L83.2365 21.0953L84.5126 24.1748L79.8934 26.088L78.6174 23.0086Z" fill="black"/>
<path d="M60.577 6.77246L62.491 2.15332L65.5704 3.42936L63.6564 8.0485L60.577 6.77246Z" fill="black"/>
</g>
<defs>
<clipPath id="clip0">
<rect width="100" height="100" fill="white"/>
</clipPath>
</defs>
</svg>
