<svg width="100" height="100" viewBox="0 0 100 100" fill="none" xmlns="http://www.w3.org/2000/svg">
<g clip-path="url(#clip0)">
<path d="M74.2023 55.321H64.1218V47.1021H55.9028V55.321H46.6445C42.6798 55.321 38.6428 58.0761 38.6428 61.4763V66.8284H81.3819V60.7718C81.3819 57.761 77.7126 55.321 74.2023 55.321Z" fill="#FF4440"/>
<path d="M74.2023 55.321V53.6777H65.766V47.102C65.766 46.6684 65.5901 46.246 65.2844 45.9394C64.9778 45.6337 64.5545 45.4587 64.1218 45.4587H55.9028C55.4702 45.4587 55.0459 45.6337 54.7403 45.9394C54.4346 46.246 54.2587 46.6684 54.2587 47.102V53.6768L46.6445 53.6777C44.2807 53.6843 41.9847 54.4744 40.1788 55.8025C39.2777 56.4704 38.497 57.2821 37.9251 58.2359C37.3541 59.1878 36.9977 60.2977 36.9986 61.4763V66.8283C36.9986 67.2666 37.1698 67.6795 37.4802 67.9899C37.7915 68.3013 38.2035 68.4715 38.6428 68.4715H81.3819C81.8212 68.4715 82.2331 68.3013 82.5445 67.9899C82.8549 67.6795 83.0261 67.2666 83.0261 66.8283V60.7718C83.027 59.6807 82.6884 58.6592 82.156 57.7919C81.3527 56.4873 80.1412 55.4893 78.7604 54.7858C77.3759 54.0869 75.8051 53.6796 74.2023 53.6777V56.9642C75.5765 56.9567 77.0843 57.4693 78.1415 58.2472C78.672 58.6319 79.0878 59.074 79.3511 59.5066C79.6173 59.944 79.7368 60.356 79.7387 60.7708V65.1832H40.2869V61.4763C40.2879 60.9542 40.4365 60.4444 40.746 59.9233C41.2059 59.1455 42.0562 58.3789 43.1219 57.8333C44.1839 57.2849 45.4433 56.9623 46.6445 56.9642H55.9028C56.3421 56.9642 56.7541 56.7939 57.0654 56.4835C57.3758 56.1731 57.547 55.7602 57.547 55.321V48.7443H62.4777V55.321C62.4777 55.7602 62.6488 56.1731 62.9602 56.4835C63.2706 56.7939 63.6835 56.9642 64.1218 56.9642H74.2023V55.321Z" fill="black"/>
<path d="M74.8071 41.3493L75.6292 31.3159C75.6292 24.601 70.5217 19.1577 64.2215 19.1577H55.8031C49.503 19.1577 44.3964 24.601 44.3964 31.3159L45.2176 41.3493" fill="#FFF35F"/>
<path d="M76.4447 41.4828L77.2667 31.4494L77.2724 31.3158C77.2724 27.5384 75.8351 24.0967 73.4855 21.5938C71.1415 19.0899 67.8513 17.5115 64.2206 17.5134H55.8031C52.1724 17.5115 48.8822 19.0899 46.5382 21.5938C44.1886 24.0967 42.7523 27.5384 42.7523 31.3158L42.757 31.4494L43.579 41.4828C43.6534 42.3877 44.4463 43.0611 45.3511 42.9868C46.256 42.9125 46.9304 42.1196 46.8552 41.2147L46.034 31.1813L44.3955 31.3158H46.0387C46.0387 28.3774 47.1552 25.7399 48.9348 23.8427C50.7201 21.9456 53.1328 20.8018 55.8022 20.7999H64.2206C66.89 20.8018 69.3036 21.9456 71.0879 23.8427C72.8675 25.7399 73.984 28.3774 73.984 31.3158H75.6282L73.9897 31.1813L73.1676 41.2138C73.0933 42.1187 73.7658 42.9125 74.6716 42.9868C75.5765 43.0611 76.3703 42.3886 76.4447 41.4838V41.4828Z" fill="black"/>
<path d="M54.5615 33.8583C46.3915 33.8583 45.2176 26.7342 45.2176 34.655V41.2797C45.2176 44.8135 46.8984 49.4479 49.7579 52.8575C51.9241 55.4386 55.8502 56.9652 60.0123 56.9652C64.1745 56.9652 68.1006 55.4386 70.2668 52.8575C73.1262 49.4479 74.8071 44.8135 74.8071 41.2797V34.655C74.8071 26.7342 62.7326 33.8583 54.5615 33.8583Z" fill="#FFD7A8"/>
<path d="M54.5615 33.8584V32.2151C52.2458 32.2085 50.6562 31.5859 49.4353 30.9378C48.8239 30.6105 48.3169 30.2747 47.8362 29.9765C47.5926 29.8269 47.3575 29.6849 47.0762 29.5523C46.794 29.4272 46.4611 29.2795 45.9325 29.271C45.6446 29.2692 45.2919 29.3359 44.9796 29.5015C44.705 29.6445 44.4773 29.8476 44.3165 30.0508C44.0334 30.412 43.9177 30.745 43.8293 31.0563C43.7051 31.5266 43.6562 31.9913 43.6195 32.5697C43.5857 33.1444 43.5734 33.8245 43.5734 34.655V41.2797C43.5762 43.3048 44.0428 45.5152 44.8799 47.704C45.7199 49.8891 46.9351 52.0487 48.4975 53.913V53.9139C49.7955 55.4574 51.5488 56.6181 53.5288 57.4064C55.5106 58.1936 57.7295 58.6075 60.0114 58.6084C62.2933 58.6075 64.5122 58.1936 66.494 57.4064C68.474 56.6181 70.2273 55.4574 71.5253 53.9139V53.913C73.0886 52.0487 74.3029 49.8891 75.1429 47.704C75.98 45.5152 76.4466 43.3048 76.4494 41.2797V34.655C76.4494 33.7991 76.3356 33.0156 76.0675 32.2998C75.679 31.2218 74.8663 30.3433 73.9154 29.8824C72.9654 29.4102 71.9486 29.2739 70.9111 29.271C68.4298 29.2842 65.6165 30.0668 62.7128 30.7929C59.8289 31.5304 56.8858 32.2226 54.5606 32.2151V35.5016C57.4878 35.4941 60.6021 34.7143 63.5217 33.9797C66.4216 33.2338 69.1578 32.5434 70.9111 32.5575C71.3936 32.5575 71.7915 32.6064 72.0803 32.6864C72.5224 32.8162 72.686 32.9479 72.8393 33.1585C72.9889 33.3721 73.161 33.8066 73.162 34.6541V41.2797C73.1648 42.7866 72.7914 44.6602 72.0737 46.5255C71.3579 48.3926 70.3035 50.2559 69.0064 51.8004H69.0073C68.1382 52.8378 66.8458 53.7305 65.2807 54.3503C63.7174 54.973 61.8917 55.322 60.0114 55.321C58.1311 55.322 56.3064 54.973 54.7431 54.3503C53.177 53.7305 51.8846 52.8378 51.0164 51.8004C49.7203 50.2559 48.6649 48.3926 47.9501 46.5255C47.2314 44.6602 46.858 42.7866 46.8608 41.2797V34.6541C46.8571 33.2752 46.9079 32.3713 46.9793 32.0232L47.0076 31.8991L46.1902 31.6094L46.7545 32.2405C46.9671 32.043 47.0047 31.8991 47.0076 31.8991L46.1902 31.6094L46.7545 32.2405L45.9325 31.3234V32.5584C46.1516 32.5735 46.5495 32.4437 46.7545 32.2405L45.9325 31.3244V32.5584V31.662L45.6813 32.5274L45.9325 32.5584V31.6611L45.6813 32.5265L45.7641 32.2405L45.6569 32.5189L45.6813 32.5274L45.7641 32.2415L45.6569 32.5189C45.6719 32.5142 46.0312 32.7174 46.4893 33.0128C47.9011 33.912 50.5612 35.5176 54.5606 35.5016V33.8584H54.5615Z" fill="black"/>
<path d="M59.2815 80.849L94.524 72.9593C96.7598 72.567 98.2544 70.4366 97.8622 68.2026C97.4709 65.9668 95.3414 64.4722 93.1065 64.8635L61.5324 70.3933L59.2815 80.849Z" fill="#FFD7A8"/>
<path d="M59.2815 80.849L59.6408 82.4527L94.8824 74.562L94.524 72.9592L94.8081 74.578C97.6017 74.0842 99.5694 71.6631 99.5694 68.9146C99.5694 68.5845 99.5403 68.2496 99.481 67.9157L99.4819 67.9185C98.9891 65.124 96.5698 63.1563 93.8205 63.1563C93.495 63.1553 93.1554 63.1826 92.8084 63.2456L92.8225 63.2437L61.2493 68.7735C60.589 68.8883 60.0669 69.3925 59.9258 70.0481L57.675 80.5029C57.5574 81.0503 57.7267 81.6212 58.1246 82.0163C58.5224 82.4104 59.0943 82.5741 59.6408 82.4527L59.2815 80.849L60.889 81.1942L62.9057 71.8202L93.3897 66.4822L93.4038 66.4794L93.8205 66.4427C94.9877 66.4427 96.0365 67.2874 96.2434 68.4857V68.4885L96.2811 68.9146C96.2811 70.0829 95.4374 71.1326 94.24 71.3386L94.1647 71.3546L58.9231 79.2443L59.2815 80.849L60.889 81.1942L59.2815 80.849Z" fill="black"/>
<path d="M98.0277 58.9442C97.1417 56.856 94.729 55.8797 92.6399 56.7657L68.2313 66.8274H36.9986L41.9302 58.6084H48.505C53.0443 58.6084 56.724 54.9297 56.724 50.3894H36.9986L12.3407 68.4715L25.4913 83.2663L40.286 86.5537H52.7734C59.5872 86.5537 66.1977 84.2342 71.5187 79.9779L95.8493 64.3329C97.9393 63.4469 98.9147 61.0333 98.0277 58.9442Z" fill="#FFD7A8"/>
<path d="M98.0277 58.9442L99.5412 58.3027C98.61 56.1111 96.4823 54.7915 94.2418 54.7943C93.495 54.7934 92.7265 54.9401 91.991 55.2561L92.64 56.7667L92.0135 55.2467L67.9068 65.1842H39.9013L42.8605 60.2535H48.506C53.953 60.2517 58.3672 55.8384 58.3682 50.3904C58.3682 49.9568 58.1932 49.5344 57.8866 49.2278C57.5809 48.9221 57.1576 48.7462 56.7249 48.7462H36.9986C36.6478 48.7462 36.3101 48.8563 36.027 49.0641L11.37 67.1463C10.9957 67.42 10.7558 67.8376 10.7069 68.2985C10.658 68.7594 10.8057 69.2175 11.1132 69.5636L24.2638 84.3584C24.4924 84.6152 24.7999 84.7967 25.1357 84.871L39.9305 88.1584L40.287 88.1979H52.7744C59.9615 88.1979 66.9342 85.7514 72.5468 81.2629L71.5197 79.9789L72.4085 81.3616L96.7391 65.7166L95.8502 64.3339L96.4927 65.8473C98.6833 64.9142 100.002 62.7857 100 60.548C100 59.7974 99.8516 59.0317 99.5421 58.3018V58.3037L98.0277 58.9442L96.5153 59.5876C96.6488 59.9027 96.7109 60.2253 96.7118 60.5461C96.71 61.5064 96.1475 62.4226 95.2078 62.8195L94.9604 62.9503L70.6299 78.5953L70.4925 78.6941C65.4631 82.717 59.2147 84.9096 52.7744 84.9096H40.4666L26.3679 81.7755L14.7703 68.7274L37.5376 52.0317H56.7249V50.3894H55.0817C55.0808 52.2095 54.348 53.8424 53.1553 55.0379C51.9608 56.2306 50.327 56.9624 48.506 56.9643H41.9311C41.3545 56.9643 40.8175 57.2671 40.5212 57.7619L35.5896 65.9809C35.2848 66.4888 35.2773 67.1209 35.5689 67.6373C35.8605 68.1527 36.407 68.4697 36.9996 68.4697H68.2323C68.4505 68.4697 68.6565 68.4293 68.8578 68.3465L93.2673 58.2849L93.289 58.2755C93.6003 58.1419 93.9192 58.0808 94.2428 58.0798C95.2031 58.0826 96.1183 58.6442 96.5153 59.5848V59.5867L98.0277 58.9442Z" fill="black"/>
<path d="M1.64136 73.4719L12.3087 65.7815L28.4504 88.1716L17.783 95.862L1.64136 73.4719Z" fill="white"/>
<path d="M28.4523 88.1659L27.491 86.8321L18.1574 93.5603L3.93827 73.8377L11.939 68.0709L27.1185 89.1263L28.4523 88.1659L27.491 86.8321L28.4523 88.1659L29.786 87.2046L13.6444 64.8154C13.1139 64.0789 12.0867 63.9115 11.3502 64.443L0.682849 72.1324C-0.0545833 72.6629 -0.220129 73.69 0.31037 74.4275L16.4511 96.8176C16.7079 97.1731 17.0879 97.4083 17.5215 97.4788C17.9551 97.5494 18.3897 97.4459 18.7462 97.1901L29.4136 89.4987C29.7644 89.2457 30.0052 88.8563 30.0748 88.4283C30.1444 88.0013 30.0381 87.5555 29.7851 87.2046L28.4523 88.1659Z" fill="black"/>
<path d="M22.2048 86.5536C22.2048 88.3699 20.7327 89.842 18.9164 89.842C17.1011 89.842 15.629 88.3699 15.629 86.5536C15.629 84.7383 17.1011 83.2662 18.9164 83.2662C20.7327 83.2662 22.2048 84.7383 22.2048 86.5536Z" fill="black"/>
<path d="M58.3682 4.36292V10.9387C58.3682 11.8464 59.1047 12.5819 60.0123 12.5819C60.92 12.5819 61.6565 11.8464 61.6565 10.9387V4.36292C61.6565 3.4543 60.92 2.71875 60.0123 2.71875C59.1047 2.71875 58.3682 3.4543 58.3682 4.36292Z" fill="black"/>
<path d="M67.7497 12.1004L73.5034 6.34669C74.1448 5.7052 74.1448 4.66396 73.5034 4.02152C72.8609 3.38003 71.8206 3.38003 71.1782 4.02152L65.4254 9.77519C64.783 10.4176 64.783 11.4589 65.4254 12.1004C66.0669 12.7419 67.1082 12.7419 67.7497 12.1004Z" fill="black"/>
<path d="M54.5991 9.77512L49.6676 4.84354C49.0261 4.20205 47.9848 4.20205 47.3433 4.84354C46.7009 5.48598 46.7009 6.52722 47.3433 7.16871L52.2749 12.1003C52.9164 12.7418 53.9576 12.7418 54.5991 12.1003C55.2416 11.4579 55.2416 10.4176 54.5991 9.77512Z" fill="black"/>
</g>
<defs>
<clipPath id="clip0">
<rect width="100" height="100" fill="white"/>
</clipPath>
</defs>
</svg>
