<svg width="44" height="44" viewBox="0 0 44 44" fill="none" xmlns="http://www.w3.org/2000/svg">
<path d="M37.5547 0H6.44531C2.89166 0 0 2.89166 0 6.44531V37.5547C0 41.1083 2.89166 44 6.44531 44H37.5547C41.1083 44 44 41.1083 44 37.5547V6.44531C44 2.89166 41.1083 0 37.5547 0ZM22.0859 33.5156C15.6886 33.5156 10.4844 28.3114 10.4844 21.9141C10.4844 15.5168 15.6886 10.3125 22.0859 10.3125C28.4832 10.3125 33.6875 15.5168 33.6875 21.9141C33.6875 28.3114 28.4832 33.5156 22.0859 33.5156ZM34.9766 12.8906C32.8442 12.8906 31.1094 11.1558 31.1094 9.02344C31.1094 6.89111 32.8442 5.15625 34.9766 5.15625C37.1089 5.15625 38.8438 6.89111 38.8438 9.02344C38.8438 11.1558 37.1089 12.8906 34.9766 12.8906Z" fill="#EF7A85"/>
<path d="M34.9766 7.73438C34.2652 7.73438 33.6875 8.3121 33.6875 9.02344C33.6875 9.73477 34.2652 10.3125 34.9766 10.3125C35.6879 10.3125 36.2656 9.73477 36.2656 9.02344C36.2656 8.3121 35.6879 7.73438 34.9766 7.73438Z" fill="#EF7A85"/>
<path d="M22.0859 12.8906C17.111 12.8906 13.0625 16.9391 13.0625 21.9141C13.0625 26.889 17.111 30.9375 22.0859 30.9375C27.0609 30.9375 31.1094 26.889 31.1094 21.9141C31.1094 16.9391 27.0609 12.8906 22.0859 12.8906Z" fill="#EF7A85"/>
</svg>
