<svg width="44" height="67" viewBox="0 0 44 67" fill="none" xmlns="http://www.w3.org/2000/svg">
<path d="M34.0698 65.9534H8.9447L4.7572 47.1096H38.2573L34.0698 65.9534Z" fill="#CDB2DE"/>
<path d="M33.0229 32.4531C33.0229 26.6714 28.3358 24.0781 22.5542 24.0781C22.5542 19.8906 13.1323 18.8438 13.1323 18.8438C13.1323 18.8438 16.2729 26.1719 12.0854 28.2656C7.89795 30.3594 5.8042 34.2184 5.8042 37.6875C5.8042 38.5204 6.13509 39.3193 6.72407 39.9083C7.31305 40.4972 8.11188 40.8281 8.94482 40.8281H33.0229C34.1335 40.8281 35.1986 40.3869 35.984 39.6016C36.7693 38.8163 37.2104 37.7512 37.2104 36.6406C37.2104 35.53 36.7693 34.4649 35.984 33.6796C35.1986 32.8943 34.1335 32.4531 33.0229 32.4531Z" fill="#FFEAD2"/>
<path d="M4.7572 47.1094L5.25447 49.346C6.12599 49.2625 7.00458 49.2031 7.89783 49.2031C19.4012 49.2031 29.27 56.0904 33.6817 65.9531H34.0698L38.2573 47.1094H4.7572Z" fill="#BD96D6"/>
<path d="M5.80408 40.8281H37.2103C38.3209 40.8281 39.386 41.2693 40.1713 42.0546C40.9566 42.8399 41.3978 43.905 41.3978 45.0156C41.3978 45.5709 41.1772 46.1035 40.7846 46.4961C40.3919 46.8888 39.8594 47.1094 39.3041 47.1094H3.71033C3.15503 47.1094 2.62248 46.8888 2.22982 46.4961C1.83717 46.1035 1.61658 45.5709 1.61658 45.0156C1.61658 43.905 2.05776 42.8399 2.84307 42.0546C3.62838 41.2693 4.69348 40.8281 5.80408 40.8281Z" fill="#FAD4B1"/>
<path d="M33.3718 8.97838C37.1275 7.88453 41.0077 9.62365 42.0398 12.8631C44.6354 21.0093 33.9047 27.4932 33.9047 27.4932C33.9047 27.4932 21.2162 27.8322 18.6203 19.6858C17.5882 16.4465 19.7956 12.9335 23.5506 11.8398C25.366 11.2949 27.3179 11.4318 29.0396 12.2246C29.922 10.7472 31.4394 9.54147 33.3718 8.97838Z" fill="#EA8668"/>
<path d="M37.2104 40.8281H29.0076C26.5189 43.7369 23.2816 45.9091 19.6465 47.1094H39.3042C39.8595 47.1094 40.392 46.8888 40.7847 46.4961C41.1773 46.1035 41.3979 45.5709 41.3979 45.0156C41.3979 43.905 40.9567 42.8399 40.1714 42.0546C39.3861 41.2693 38.321 40.8281 37.2104 40.8281Z" fill="#F9B775"/>
<path d="M42.0398 12.8635C41.5701 11.3895 40.5072 10.2311 39.1381 9.50391C38.6894 13.3869 37.0425 17.0338 34.4261 19.9378C31.8098 22.8419 28.3538 24.859 24.5385 25.7089C28.9036 27.6253 33.9046 27.493 33.9046 27.493C33.9046 27.493 44.6359 21.0093 42.0398 12.8635Z" fill="#E57055"/>
<path d="M24.6479 20.9377C26.3825 20.9377 27.7886 19.5316 27.7886 17.7971C27.7886 16.0626 26.3825 14.6565 24.6479 14.6565C22.9134 14.6565 21.5073 16.0626 21.5073 17.7971C21.5073 19.5316 22.9134 20.9377 24.6479 20.9377Z" fill="#FFD0C2"/>
<path d="M11.0385 36.6409C12.773 36.6409 14.1791 35.2348 14.1791 33.5002C14.1791 31.7657 12.773 30.3596 11.0385 30.3596C9.30393 30.3596 7.89783 31.7657 7.89783 33.5002C7.89783 35.2348 9.30393 36.6409 11.0385 36.6409Z" fill="#FFFCED"/>
<path d="M4.23376 46.0627C5.10102 46.0627 5.80407 45.3597 5.80407 44.4924C5.80407 43.6252 5.10102 42.9221 4.23376 42.9221C3.3665 42.9221 2.66345 43.6252 2.66345 44.4924C2.66345 45.3597 3.3665 46.0627 4.23376 46.0627Z" fill="#FFFCED"/>
<path d="M33.5464 13.6096C34.4136 13.6096 35.1167 12.9066 35.1167 12.0393C35.1167 11.172 34.4136 10.469 33.5464 10.469C32.6791 10.469 31.9761 11.172 31.9761 12.0393C31.9761 12.9066 32.6791 13.6096 33.5464 13.6096Z" fill="#FFD0C2"/>
<path d="M22.5534 61.7656V55.4844C22.5584 55.3439 22.535 55.2038 22.4847 55.0725C22.4343 54.9413 22.3581 54.8215 22.2604 54.7203C22.1628 54.6192 22.0458 54.5387 21.9164 54.4838C21.7869 54.4288 21.6478 54.4005 21.5072 54.4005C21.3666 54.4005 21.2275 54.4288 21.098 54.4838C20.9686 54.5387 20.8516 54.6192 20.754 54.7203C20.6563 54.8215 20.5801 54.9413 20.5297 55.0725C20.4794 55.2038 20.456 55.3439 20.461 55.4844V61.7656C20.456 61.9061 20.4794 62.0462 20.5297 62.1775C20.5801 62.3087 20.6563 62.4285 20.754 62.5297C20.8516 62.6308 20.9686 62.7113 21.098 62.7662C21.2275 62.8212 21.3666 62.8495 21.5072 62.8495C21.6478 62.8495 21.7869 62.8212 21.9164 62.7662C22.0458 62.7113 22.1628 62.6308 22.2604 62.5297C22.3581 62.4285 22.4343 62.3087 22.4847 62.1775C22.535 62.0462 22.5584 61.9061 22.5534 61.7656Z" fill="black"/>
<path d="M26.2927 62.8125C26.5445 62.8122 26.7877 62.7212 26.9778 62.5561C27.168 62.391 27.2922 62.163 27.3278 61.9137L28.8249 51.445C28.8457 51.3083 28.8393 51.1688 28.806 51.0345C28.7726 50.9003 28.713 50.774 28.6306 50.6629C28.5482 50.5519 28.4445 50.4583 28.3257 50.3875C28.2069 50.3167 28.0752 50.2702 27.9383 50.2506C27.8013 50.231 27.6619 50.2387 27.528 50.2734C27.3941 50.308 27.2684 50.3688 27.1581 50.4523C27.0478 50.5358 26.9552 50.6403 26.8855 50.7598C26.8159 50.8793 26.7706 51.0114 26.7523 51.1485L25.255 61.6172C25.2337 61.7658 25.2447 61.9173 25.2871 62.0613C25.3295 62.2053 25.4024 62.3386 25.5008 62.4519C25.5992 62.5653 25.7209 62.6562 25.8575 62.7184C25.9942 62.7806 26.1426 62.8127 26.2927 62.8125Z" fill="black"/>
<path d="M31.4898 58.4627C31.562 58.4783 31.6357 58.4862 31.7096 58.4861C31.9488 58.485 32.1805 58.4023 32.3663 58.2517C32.5522 58.1011 32.681 57.8916 32.7317 57.6578L34.0468 51.5167C34.1045 51.2452 34.0522 50.9618 33.9013 50.7287C33.7504 50.4957 33.5133 50.332 33.2419 50.2736C33.1697 50.2579 33.096 50.25 33.0222 50.25C32.7828 50.2511 32.551 50.3338 32.3649 50.4843C32.1788 50.6349 32.0497 50.8445 31.9987 51.0783L30.6849 57.2196C30.6269 57.4911 30.6791 57.7746 30.8301 58.0077C30.981 58.2408 31.2183 58.4045 31.4898 58.4627Z" fill="black"/>
<path d="M29.8083 61.3155C29.7759 61.4682 29.778 61.6262 29.8146 61.778C29.8511 61.9298 29.9211 62.0715 30.0194 62.1928C30.1177 62.3141 30.2419 62.4119 30.3829 62.479C30.5239 62.5461 30.6781 62.5809 30.8342 62.5807C31.0223 62.5804 31.2069 62.5294 31.3685 62.433C31.5301 62.3366 31.6627 62.1985 31.7524 62.0331C31.8422 61.8677 31.8857 61.6812 31.8784 61.4932C31.8711 61.3052 31.8132 61.1227 31.711 60.9648C31.6155 60.8182 31.4849 60.6977 31.3311 60.6143C31.1774 60.5309 31.0052 60.4871 30.8303 60.487C30.5911 60.4883 30.3595 60.5711 30.1737 60.7217C29.988 60.8723 29.859 61.0817 29.8083 61.3155Z" fill="black"/>
<path d="M16.7216 62.8125C16.8718 62.8127 17.0202 62.7806 17.1568 62.7184C17.2935 62.6562 17.4151 62.5653 17.5136 62.4519C17.612 62.3386 17.6849 62.2054 17.7273 62.0613C17.7697 61.9173 17.7806 61.7658 17.7593 61.6172L16.2623 51.1485C16.2428 51.0124 16.1968 50.8815 16.1267 50.7632C16.0566 50.6449 15.9639 50.5416 15.8539 50.4591C15.7439 50.3766 15.6188 50.3166 15.4856 50.2825C15.3524 50.2485 15.2138 50.2409 15.0777 50.2604C14.9416 50.2799 14.8107 50.326 14.6924 50.396C14.5741 50.4661 14.4708 50.5588 14.3883 50.6688C14.3059 50.7788 14.2459 50.9039 14.2118 51.0371C14.1777 51.1703 14.1702 51.3089 14.1896 51.445L15.6867 61.9138C15.7223 62.163 15.8465 62.391 16.0366 62.5561C16.2267 62.7211 16.4699 62.8122 16.7216 62.8125Z" fill="black"/>
<path d="M11.0155 51.0783C10.9574 50.8067 10.7938 50.5694 10.5606 50.4185C10.3275 50.2675 10.044 50.2154 9.77238 50.2735C9.50081 50.3317 9.26345 50.4953 9.11252 50.7284C8.9616 50.9616 8.90947 51.2451 8.9676 51.5167L10.2827 57.6578C10.3334 57.8916 10.4622 58.1011 10.6481 58.2517C10.8339 58.4023 11.0655 58.485 11.3047 58.4861C11.4609 58.4861 11.615 58.4511 11.7559 58.3838C11.8968 58.3165 12.0209 58.2186 12.1191 58.0972C12.2173 57.9758 12.2872 57.834 12.3235 57.6822C12.3599 57.5303 12.3619 57.3723 12.3294 57.2195L11.0155 51.0783Z" fill="black"/>
<path d="M11.1582 61.7525C11.2091 61.9864 11.3382 62.1959 11.5243 62.3465C11.7103 62.4971 11.9421 62.5798 12.1815 62.5809C12.3376 62.581 12.4917 62.5462 12.6326 62.4791C12.7735 62.4119 12.8976 62.3141 12.9959 62.1928C13.0941 62.0715 13.1639 61.9298 13.2003 61.778C13.2367 61.6262 13.2387 61.4682 13.2061 61.3156C13.1482 61.044 12.9847 60.8066 12.7517 60.6555C12.5187 60.5045 12.2353 60.4521 11.9637 60.5101C11.6921 60.568 11.4547 60.7315 11.3036 60.9645C11.1526 61.1975 11.1002 61.481 11.1582 61.7525Z" fill="black"/>
<path d="M37.2105 39.7812H5.8042C4.41644 39.7828 3.08596 40.3348 2.10466 41.3161C1.12336 42.2974 0.571383 43.6279 0.569824 45.0156C0.570759 45.8483 0.901946 46.6466 1.49073 47.2353C2.0795 47.8241 2.87779 48.1553 3.71045 48.1562H36.9523L33.4155 64.0766C33.3654 64.3105 33.2369 64.5202 33.0512 64.6711C32.8656 64.822 32.634 64.9049 32.3948 64.9062H10.6198C10.3816 64.9053 10.1508 64.8231 9.96551 64.6734C9.78021 64.5237 9.65144 64.3153 9.60043 64.0826L6.71105 51.07C6.68228 50.9347 6.627 50.8066 6.54841 50.6928C6.46983 50.5791 6.36949 50.482 6.25319 50.4073C6.13689 50.3325 6.00694 50.2815 5.87083 50.2573C5.73472 50.233 5.59516 50.2359 5.46019 50.2659C5.32523 50.2959 5.19753 50.3523 5.08449 50.4319C4.97144 50.5114 4.87527 50.6126 4.80154 50.7296C4.72781 50.8465 4.67797 50.9769 4.65491 51.1132C4.63184 51.2496 4.63601 51.3891 4.66716 51.5238L7.55785 64.5426C7.71184 65.2398 8.09932 65.8634 8.65614 66.3103C9.21296 66.7572 9.90571 67.0005 10.6197 67H32.3947C33.1097 67.0003 33.8032 66.7562 34.3604 66.3081C34.9176 65.8601 35.3048 65.2351 35.458 64.5367L39.0972 48.1562H39.3042C40.1369 48.1553 40.9351 47.8241 41.5239 47.2353C42.1127 46.6465 42.4439 45.8483 42.4448 45.0156C42.4432 43.6279 41.8912 42.2974 40.91 41.3161C39.9287 40.3348 38.5982 39.7828 37.2105 39.7812ZM39.3042 46.0625H3.71045C3.4329 46.0622 3.1668 45.9518 2.97054 45.7555C2.77428 45.5593 2.66389 45.2932 2.66357 45.0156C2.66451 44.183 2.9957 43.3847 3.58448 42.7959C4.17325 42.2071 4.97154 41.8759 5.8042 41.875H37.2105C38.0431 41.876 38.8414 42.2072 39.4301 42.7959C40.0189 43.3847 40.3501 44.183 40.3511 45.0156C40.3508 45.2932 40.2404 45.5593 40.0441 45.7555C39.8479 45.9518 39.5818 46.0622 39.3042 46.0625Z" fill="black"/>
<path d="M19.8538 28.1163L19.8512 28.1191C19.6635 28.3168 19.562 28.5811 19.5691 28.8536C19.5761 29.1262 19.691 29.3848 19.8887 29.5727C20.0863 29.7605 20.3504 29.8623 20.623 29.8555C20.8955 29.8487 21.1543 29.734 21.3423 29.5366C21.5304 29.3391 21.6323 29.0751 21.6258 28.8025C21.6193 28.5299 21.5048 28.2711 21.3075 28.0829C21.1103 27.8946 20.8463 27.7924 20.5738 27.7987C20.3012 27.805 20.0422 27.9192 19.8538 28.1163Z" fill="black"/>
<path d="M23.0363 35.4747C22.9965 35.4748 22.9568 35.477 22.9172 35.4812L22.9093 35.4824C22.7704 35.4957 22.6355 35.5368 22.5127 35.603C22.3898 35.6692 22.2815 35.7594 22.1939 35.8681C22.1064 35.9769 22.0416 36.102 22.0031 36.2362C21.9647 36.3704 21.9535 36.5109 21.9701 36.6495C21.9868 36.788 22.031 36.9219 22.1002 37.0431C22.1693 37.1644 22.262 37.2706 22.3728 37.3555C22.4836 37.4404 22.6103 37.5022 22.7453 37.5375C22.8804 37.5727 23.0211 37.5805 23.1593 37.5606C23.4234 37.5281 23.6653 37.3962 23.8357 37.1917C24.006 36.9872 24.0921 36.7256 24.0765 36.4599C24.0608 36.1942 23.9445 35.9445 23.7513 35.7615C23.5581 35.5785 23.3024 35.4759 23.0363 35.4747Z" fill="black"/>
<path d="M5.8042 38.7344C6.08178 38.7342 6.34794 38.6238 6.54422 38.4275C6.7405 38.2312 6.85087 37.9651 6.85107 37.6875C6.84927 37.4879 6.90174 37.2916 7.00287 37.1196C7.19654 36.7635 7.65717 36.3657 8.29838 35.9968C9.31385 35.404 10.7965 34.8544 12.4885 34.2472L12.6874 34.1765C14.331 33.5849 16.0322 32.9726 17.6522 32.16C17.7751 32.0983 17.8846 32.013 17.9745 31.909C18.0644 31.805 18.133 31.6843 18.1762 31.5538C18.2195 31.4233 18.2366 31.2855 18.2266 31.1484C18.2166 31.0113 18.1798 30.8774 18.1181 30.7546C18.0564 30.6317 17.9711 30.5222 17.8671 30.4323C17.763 30.3424 17.6423 30.2738 17.5118 30.2306C17.3813 30.1873 17.2436 30.1702 17.1065 30.1801C16.9693 30.1901 16.8355 30.227 16.7126 30.2887C15.2313 31.0346 13.5576 31.6379 11.9389 32.2202C10.9941 32.5604 10.1016 32.8823 9.25889 33.2251C8.78033 33.4221 8.26933 33.645 7.7684 33.9025C8.73296 31.9613 10.4076 30.275 12.553 29.2022C16.1884 27.3845 15.4372 22.7156 14.6948 20.1586C15.8297 20.3753 16.9458 20.6805 18.033 21.0716C18.3089 21.6804 18.647 22.259 19.0419 22.7983C19.6292 23.5928 20.3244 24.3015 21.1074 24.9038C22.2406 25.7651 23.4923 26.458 24.8238 26.9609C26.0542 27.4301 27.3237 27.7892 28.6176 28.034C29.3817 28.1825 30.1054 28.2876 30.7616 28.3626C31.5669 29.4749 31.9762 30.8481 31.9762 32.4535V32.4636C31.9772 32.6946 31.8973 32.9187 31.7503 33.0971C31.4886 33.449 30.8945 33.8168 30.1198 34.1073C29.1051 34.4662 28.0601 34.7329 26.9975 34.9041C26.7407 34.9508 26.5106 35.0917 26.3523 35.2993C26.194 35.5069 26.119 35.7661 26.1419 36.0261C26.1648 36.2861 26.2841 36.5282 26.4763 36.7049C26.6685 36.8815 26.9197 36.98 27.1807 36.981C27.2434 36.981 27.306 36.9757 27.3679 36.9651C28.7353 36.7165 30.481 36.3398 31.8393 35.6279C32.445 35.3284 32.9791 34.9022 33.4056 34.3782C33.5885 34.1447 33.7369 33.8863 33.8464 33.6107C34.5112 33.7922 35.098 34.187 35.5166 34.7344C35.9352 35.2818 36.1625 35.9515 36.1636 36.6406C36.1636 36.9183 36.2739 37.1845 36.4702 37.3809C36.6665 37.5772 36.9328 37.6875 37.2104 37.6875C37.4881 37.6875 37.7544 37.5772 37.9507 37.3809C38.147 37.1845 38.2573 36.9183 38.2573 36.6406C38.2557 35.4275 37.8335 34.2524 37.0626 33.3157C36.2917 32.3789 35.2199 31.7384 34.0298 31.5033C33.9496 30.4785 33.6941 29.4749 33.2745 28.5365C33.4375 28.5399 33.5787 28.5413 33.6894 28.5413C33.8334 28.5413 33.9184 28.5402 33.9289 28.5389L34.2064 28.5323L34.4459 28.3884C34.4501 28.3867 34.454 28.3845 34.4577 28.382C36.072 27.352 37.5676 26.1469 38.9174 24.7886C40.1354 23.5867 41.1816 22.2225 42.0265 20.7345C42.9989 18.9717 43.4909 17.1882 43.4909 15.436C43.4909 14.9156 43.4476 14.396 43.3614 13.8827C43.3212 13.6385 43.1954 13.4165 43.0064 13.2565C42.8175 13.0966 42.5777 13.0092 42.3302 13.0099C42.2719 13.0095 42.2136 13.0143 42.1562 13.0243C41.8823 13.0701 41.6379 13.2228 41.4767 13.4489C41.3154 13.6749 41.2506 13.9557 41.2964 14.2295C41.3633 14.6282 41.397 15.0318 41.3972 15.436C41.3985 16.8284 40.9928 18.2718 40.1933 19.7242C39.0312 21.8402 37.2331 23.5963 35.9299 24.6968C35.1813 25.3316 34.5178 25.8171 34.0939 26.1128C33.9225 26.2319 33.7563 26.3443 33.5979 26.4477C33.2298 26.4461 32.4565 26.4285 31.4501 26.331C31.4276 26.3281 31.4053 26.3258 31.3826 26.3243C29.8071 26.175 28.2504 25.8688 26.7357 25.4101C25.0031 24.8736 23.5414 24.1473 22.3938 23.2521C21.1988 22.32 20.3579 21.2382 19.8342 19.9596C19.8182 19.9064 19.798 19.8546 19.7737 19.8046C19.7183 19.6607 19.6657 19.5157 19.6182 19.367C19.483 18.9435 19.4137 18.5017 19.4128 18.0571C19.4354 16.9121 19.8528 15.81 20.5944 14.9373C21.4408 13.9271 22.5738 13.1976 23.8437 12.8451C24.4842 12.6571 25.1481 12.561 25.8156 12.5597C26.7744 12.5567 27.722 12.7649 28.5911 13.1697L29.451 13.578L29.9391 12.7614C30.7151 11.4592 32.0734 10.4465 33.6647 9.98325C34.5995 9.70854 35.5814 9.63184 36.5475 9.75805C36.594 9.76379 36.6407 9.76689 36.6875 9.76734C36.9531 9.76711 37.2087 9.66594 37.4025 9.48434C37.5963 9.30273 37.7138 9.05426 37.7312 8.78925C37.7487 8.52424 37.6648 8.2625 37.4965 8.05705C37.3282 7.8516 37.0881 7.7178 36.8248 7.68275C35.5694 7.51831 34.2934 7.61725 33.0783 7.97325C32.1837 8.23176 31.3351 8.62871 30.5633 9.14968C30.0624 9.48797 29.5998 9.87976 29.1837 10.3181C29.1532 10.2515 29.1228 10.1835 29.0921 10.1128C28.7531 9.32765 28.3488 8.11982 28.3501 6.82693C28.347 6.22607 28.4406 5.62864 28.6275 5.05758C29.1928 3.39435 30.2476 2.76374 30.9921 2.43267C31.3657 2.27397 31.7573 2.16148 32.1581 2.09767C32.2785 2.07935 32.395 2.06495 32.5061 2.0571C32.544 2.05448 32.5715 2.05304 32.5886 2.05304H32.6017C32.8794 2.05218 33.1453 1.94105 33.341 1.74411C33.5367 1.54717 33.6462 1.28055 33.6453 1.0029C33.6445 0.72525 33.5333 0.459318 33.3364 0.263604C33.1394 0.0678904 32.8728 -0.041573 32.5952 -0.0407053H32.5821C31.7501 -0.00949641 30.9313 0.176906 30.1679 0.508904C29.4298 0.819516 28.7591 1.27062 28.1931 1.83713C27.4814 2.5557 26.9498 3.43236 26.6415 4.39556C26.3832 5.18002 26.2533 6.00104 26.2567 6.82693C26.2743 8.10375 26.5299 9.36611 27.0104 10.5492C26.6144 10.4951 26.2152 10.4677 25.8156 10.4674C24.9497 10.4677 24.0883 10.5915 23.2574 10.8351C22.4042 11.0814 21.5923 11.4531 20.8483 11.9382C20.1428 12.3963 19.5114 12.9594 18.9757 13.6081C18.4581 14.2339 18.0466 14.9403 17.7574 15.6992C17.47 16.4523 17.3215 17.2512 17.319 18.0573C17.319 18.2536 17.3291 18.4499 17.3472 18.6442C16.0046 18.2595 14.6345 17.9785 13.2489 17.8037L11.4615 17.6032L12.1701 19.2563C12.1976 19.3206 14.8319 25.7221 11.6172 27.3296C7.45002 29.4133 4.75732 33.4791 4.75732 37.6875C4.75732 37.9651 4.86762 38.2314 5.06395 38.4277C5.26027 38.6241 5.52655 38.7344 5.8042 38.7344Z" fill="black"/>
<path d="M39.7549 11.1963C39.9623 11.3753 40.2322 11.4649 40.5055 11.4453C40.7788 11.4257 41.0332 11.2985 41.2129 11.0917C41.3926 10.8849 41.483 10.6153 41.4644 10.342C41.4457 10.0686 41.3194 9.8138 41.1132 9.63337C40.907 9.45295 40.6377 9.36161 40.3643 9.37938C40.0909 9.39714 39.8356 9.52256 39.6545 9.72816C39.4734 9.93375 39.3812 10.2028 39.398 10.4762C39.4149 10.7497 39.5394 11.0053 39.7444 11.1871L39.7549 11.1963Z" fill="black"/>
</svg>
