<svg width="44" height="44" viewBox="0 0 44 44" fill="none" xmlns="http://www.w3.org/2000/svg">
<path d="M24.3714 24.2495C23.666 23.8388 22.6857 23.8388 21.8891 23.8388H19.2734V29.2288H21.6741C22.5628 29.2288 23.6963 29.2925 24.4626 28.7545C25.1662 28.281 25.5645 27.3515 25.5645 26.4665C25.5645 25.6442 25.075 24.6606 24.3714 24.2495ZM23.3846 19.6465C23.9667 19.2033 24.272 18.4131 24.272 17.6852C24.272 16.8946 23.9048 16.1356 23.2315 15.725C22.5271 15.3143 21.2396 15.4092 20.4128 15.4092H19.2734V20.1529H20.7808C21.6384 20.1525 22.6499 20.2157 23.3846 19.6465ZM36.2656 0H7.73346C3.46271 0 0 3.46271 0 7.73438V36.2656C0 40.5364 3.46271 44 7.73346 44H36.2656C40.5364 44 44 40.5364 44 36.2656V7.73438C44 3.46271 40.5364 0 36.2656 0ZM23.1935 33.2452H14.2047V11.5505H24.0258C26.8707 11.5505 29.4956 13.3613 29.4956 16.5555C29.4956 19.0217 28.1188 20.7107 26.3624 21.2355V21.2992C28.9667 21.8373 30.8266 23.2517 30.8266 26.664C30.8266 29.8219 28.6761 33.2452 23.1935 33.2452Z" fill="#EF7A85"/>
</svg>
