<svg width="100" height="100" viewBox="0 0 100 100" fill="none" xmlns="http://www.w3.org/2000/svg">
<path d="M12.5 70.3125V90.625C12.5 91.4538 12.8292 92.2487 13.4153 92.8347C14.0013 93.4208 14.7962 93.75 15.625 93.75H84.375C85.2038 93.75 85.9987 93.4208 86.5847 92.8347C87.1708 92.2487 87.5 91.4538 87.5 90.625V70.3125H12.5Z" fill="#FFD7A8"/>
<path d="M21.875 43.75H78.125V64.0625H21.875V43.75Z" fill="#FFD7A8"/>
<path d="M54.9396 15.3636C54.3037 15.3294 53.6675 15.4251 53.0698 15.6449C52.4722 15.8646 51.9255 16.2039 51.4633 16.6419C51.0011 17.0799 50.6329 17.6075 50.3814 18.1925C50.1298 18.7775 50 19.4077 50 20.0445C50 19.4077 49.8702 18.7775 49.6187 18.1925C49.3671 17.6075 48.9989 17.0799 48.5367 16.6419C48.0745 16.2039 47.5279 15.8646 46.9302 15.6449C46.3325 15.4251 45.6963 15.3294 45.0604 15.3636C43.832 15.4725 42.6908 16.0438 41.8674 16.962C41.044 17.8801 40.6 19.0767 40.625 20.3097V25C40.625 25.8288 40.9542 26.6237 41.5403 27.2097L47.7903 33.4597C48.0805 33.7499 48.425 33.9801 48.8041 34.1371C49.1833 34.2942 49.5896 34.375 50 34.375C50.4104 34.375 50.8168 34.2942 51.1959 34.1371C51.575 33.9801 51.9195 33.7499 52.2097 33.4597L58.4597 27.2097C59.0458 26.6237 59.375 25.8288 59.375 25V20.3097C59.4 19.0767 58.956 17.8801 58.1326 16.962C57.3093 16.0438 56.168 15.4725 54.9396 15.3636Z" fill="#FF4440"/>
<path d="M78.125 45.3125H66.3389C65.8648 45.3125 65.3924 45.2543 64.9324 45.1393L61.4563 44.2703C60.1132 43.9345 58.6943 44.0903 57.4561 44.7094L54.3495 46.2627C53.5442 46.6653 52.6563 46.875 51.7559 46.875C50.611 46.875 49.4916 46.5361 48.539 45.901L46.7735 44.724C45.8209 44.0889 44.7015 43.75 43.5566 43.75H21.875V37.5C21.875 36.6712 22.2042 35.8763 22.7903 35.2903C23.3763 34.7042 24.1712 34.375 25 34.375H75C75.8288 34.375 76.6237 34.7042 77.2097 35.2903C77.7958 35.8763 78.125 36.6712 78.125 37.5V45.3125Z" fill="#FFAAAA"/>
<path d="M12.5 70.3125L21.0083 75.9847C21.2649 76.1558 21.5665 76.2471 21.875 76.2471C22.1835 76.2471 22.4851 76.1558 22.7417 75.9847L30.3833 70.8903C30.6399 70.7192 30.9415 70.6279 31.25 70.6279C31.5585 70.6279 31.8601 70.7192 32.1167 70.8903L39.7583 75.9847C40.0149 76.1558 40.3165 76.2471 40.625 76.2471C40.9335 76.2471 41.2351 76.1558 41.4917 75.9847L49.1333 70.8903C49.3899 70.7192 49.6915 70.6279 50 70.6279C50.3085 70.6279 50.6101 70.7192 50.8667 70.8903L58.5083 75.9847C58.7649 76.1558 59.0665 76.2471 59.375 76.2471C59.6835 76.2471 59.9851 76.1558 60.2417 75.9847L67.8833 70.8903C68.1399 70.7192 68.4415 70.6279 68.75 70.6279C69.0585 70.6279 69.3601 70.7192 69.6167 70.8903L77.2583 75.9847C77.515 76.1558 77.8165 76.2471 78.125 76.2471C78.4335 76.2471 78.735 76.1558 78.9917 75.9847L87.5 70.3125V67.1875C87.5 66.3587 87.1708 65.5638 86.5847 64.9778C85.9987 64.3917 85.2038 64.0625 84.375 64.0625H15.625C14.7962 64.0625 14.0013 64.3917 13.4153 64.9778C12.8292 65.5638 12.5 66.3587 12.5 67.1875V70.3125Z" fill="#FFAAAA"/>
<path d="M15.625 95.3125H84.375C85.6178 95.3111 86.8093 94.8168 87.6881 93.9381C88.5668 93.0593 89.0611 91.8678 89.0625 90.625V67.1875C89.0611 65.9447 88.5668 64.7532 87.6881 63.8744C86.8093 62.9957 85.6178 62.5014 84.375 62.5H79.6875V37.5C79.6861 36.2572 79.1918 35.0657 78.3131 34.1869C77.4343 33.3082 76.2428 32.8139 75 32.8125H59.375V35.9375H75C75.4143 35.9379 75.8115 36.1027 76.1044 36.3956C76.3973 36.6885 76.5621 37.0857 76.5625 37.5V43.75H66.3391C65.9927 43.7497 65.6477 43.7077 65.3114 43.6249L61.8354 42.7551C60.1305 42.3283 58.3292 42.5259 56.7573 43.3121L53.6499 44.8654C52.9802 45.1927 52.2371 45.3404 51.4932 45.2941C50.7494 45.2478 50.0303 45.0092 49.4064 44.6014L47.6394 43.4235C46.4308 42.6162 45.0097 42.186 43.5562 42.1875H23.4375V37.5C23.4379 37.0857 23.6027 36.6885 23.8956 36.3956C24.1885 36.1027 24.5857 35.9379 25 35.9375H40.625V32.8125H25C23.7572 32.8139 22.5657 33.3082 21.6869 34.1869C20.8082 35.0657 20.3139 36.2572 20.3125 37.5V62.5H15.625C14.3822 62.5014 13.1907 62.9957 12.3119 63.8744C11.4332 64.7532 10.9389 65.9447 10.9375 67.1875V90.625C10.9389 91.8678 11.4332 93.0593 12.3119 93.9381C13.1907 94.8168 14.3822 95.3111 15.625 95.3125ZM84.375 92.1875H15.625C15.2107 92.1871 14.8135 92.0223 14.5206 91.7294C14.2277 91.4365 14.0629 91.0393 14.0625 90.625V73.2317L20.1401 77.2827C20.6529 77.6269 21.2564 77.8108 21.874 77.8111C22.4916 77.8114 23.0953 77.628 23.6084 77.2843L31.25 72.1909L38.8901 77.2827C39.4029 77.6269 40.0064 77.8108 40.624 77.8111C41.2416 77.8114 41.8453 77.628 42.3584 77.2843L50 72.1909L57.6401 77.2827C58.1526 77.6276 58.7562 77.8119 59.374 77.8122C59.9917 77.8125 60.5956 77.6287 61.1084 77.2843L68.75 72.1909L76.3901 77.2827C76.9029 77.6269 77.5064 77.8108 78.124 77.8111C78.7416 77.8114 79.3453 77.628 79.8584 77.2843L85.9375 73.2319V90.625C85.9371 91.0393 85.7723 91.4365 85.4794 91.7294C85.1865 92.0223 84.7893 92.1871 84.375 92.1875ZM23.4375 45.3125H43.5562C44.3927 45.3114 45.2106 45.5589 45.9061 46.0236L47.6731 47.2015C48.7529 47.9211 50.0038 48.3426 51.299 48.4233C52.5941 48.5039 53.8876 48.2409 55.0484 47.6608L58.1551 46.1075C59.0595 45.6548 60.0959 45.5406 61.0772 45.7855L64.5554 46.6568C65.1389 46.8017 65.7379 46.875 66.3391 46.875H76.5625V62.5H23.4375V45.3125ZM15.625 65.625H84.375C84.7893 65.6254 85.1865 65.7902 85.4794 66.0831C85.7723 66.376 85.9371 66.7732 85.9375 67.1875V69.4763L78.125 74.6841L70.4849 69.5923C69.9721 69.2481 69.3686 69.0642 68.751 69.0639C68.1334 69.0636 67.5297 69.247 67.0166 69.5907L59.375 74.6841L51.7349 69.5923C51.2221 69.2481 50.6186 69.0642 50.001 69.0639C49.3834 69.0636 48.7797 69.247 48.2666 69.5907L40.625 74.6841L32.9849 69.5923C32.4721 69.2481 31.8686 69.0642 31.251 69.0639C30.6334 69.0636 30.0297 69.247 29.5166 69.5907L21.875 74.6841L14.0625 69.4763V67.1875C14.0629 66.7732 14.2277 66.376 14.5206 66.0831C14.8135 65.7902 15.2107 65.6254 15.625 65.625Z" fill="black"/>
<path d="M39.0625 20.3094V25C39.0608 25.6158 39.1814 26.2258 39.4171 26.7947C39.6528 27.3636 39.9991 27.8801 40.4358 28.3142L46.685 34.5642C47.1202 34.9996 47.637 35.3449 48.2057 35.5806C48.7744 35.8162 49.384 35.9375 49.9996 35.9375C50.6152 35.9375 51.2248 35.8162 51.7935 35.5806C52.3622 35.3449 52.879 34.9996 53.3142 34.5642L59.5642 28.3142C60.0009 27.8801 60.3472 27.3636 60.5829 26.7947C60.8186 26.2258 60.9392 25.6158 60.9375 25V20.3094C60.9719 18.6736 60.3774 17.0869 59.2766 15.8764C58.1758 14.6659 56.6526 13.9238 55.0209 13.8031C54.1726 13.755 53.3234 13.8818 52.5261 14.1755C51.7288 14.4692 51.0004 14.9237 50.386 15.5106C50.251 15.6387 50.122 15.7715 50 15.9104C49.8779 15.7715 49.749 15.6388 49.6139 15.5106C48.9999 14.9232 48.2715 14.4685 47.4741 14.1747C46.6768 13.881 45.8275 13.7545 44.9791 13.8031C43.3474 13.9238 41.8241 14.6659 40.7234 15.8764C39.6226 17.0869 39.0281 18.6736 39.0625 20.3094ZM45.3133 16.9204C46.1417 16.9205 46.9362 17.2495 47.5221 17.8353C48.108 18.421 48.4372 19.2155 48.4375 20.0439V21.6064H51.5625V20.0439C51.5626 19.6193 51.6493 19.1992 51.8172 18.8092C51.9852 18.4192 52.2308 18.0676 52.5392 17.7757C52.8476 17.4838 53.2122 17.2578 53.6108 17.1116C54.0094 16.9653 54.4337 16.9018 54.8576 16.925C55.6857 17.0138 56.4498 17.4115 56.9975 18.0389C57.5452 18.6662 57.8362 19.4769 57.8125 20.3094V25C57.8109 25.4141 57.6464 25.8109 57.3547 26.1047L51.1039 32.3547C50.8069 32.6396 50.4112 32.7987 49.9996 32.7987C49.5879 32.7987 49.1923 32.6396 48.8952 32.3547L42.6452 26.1047C42.3535 25.8109 42.1891 25.414 42.1875 25V20.3094C42.1638 19.4769 42.4548 18.6662 43.0025 18.0389C43.5502 17.4115 44.3143 17.0138 45.1424 16.925C45.1996 16.922 45.2568 16.9205 45.3133 16.9205V16.9204Z" fill="black"/>
<path d="M48.4375 4.6875H51.5625V9.375H48.4375V4.6875Z" fill="black"/>
<path d="M32.3179 12.6602L34.5273 10.4508L37.8413 13.7648L35.632 15.9742L32.3179 12.6602Z" fill="black"/>
<path d="M26.5625 26.5625H31.25V29.6875H26.5625V26.5625Z" fill="black"/>
<path d="M68.75 26.5625H73.4375V29.6875H68.75V26.5625Z" fill="black"/>
<path d="M62.1461 13.7678L65.4602 10.4538L67.6695 12.6631L64.3555 15.9772L62.1461 13.7678Z" fill="black"/>
<path d="M34.8208 86.3901L37.9448 83.2661L40.1542 85.4755L37.0302 88.5995L34.8208 86.3901Z" fill="black"/>
<path d="M47.3192 82.3521L49.5286 80.1427L52.6527 83.2667L50.4433 85.4761L47.3192 82.3521Z" fill="black"/>
<path d="M22.3223 82.3489L24.5317 80.1395L27.6558 83.2636L25.4464 85.4729L22.3223 82.3489Z" fill="black"/>
<path d="M59.8177 86.3917L62.9417 83.2677L65.1511 85.477L62.027 88.6011L59.8177 86.3917Z" fill="black"/>
<path d="M72.3161 82.3536L74.5255 80.1443L77.6495 83.2683L75.4402 85.4777L72.3161 82.3536Z" fill="black"/>
<path d="M47.3223 56.7074L50.4464 53.5833L52.6558 55.7927L49.5317 58.9168L47.3223 56.7074Z" fill="black"/>
<path d="M59.8208 52.6693L62.0302 50.4599L65.1542 53.584L62.9448 55.7934L59.8208 52.6693Z" fill="black"/>
<path d="M34.8239 52.6661L37.0333 50.4568L40.1573 53.5808L37.948 55.7902L34.8239 52.6661Z" fill="black"/>
</svg>
